<?xml version="1.0" encoding="UTF-8" standalone="no"?>
<!DOCTYPE svg PUBLIC "-//W3C//DTD SVG 1.1//EN" "http://www.w3.org/Graphics/SVG/1.1/DTD/svg11.dtd">
<svg width="100%" height="100%" viewBox="0 0 48 48" version="1.1" xmlns="http://www.w3.org/2000/svg" xmlns:xlink="http://www.w3.org/1999/xlink" xml:space="preserve" xmlns:serif="http://www.serif.com/" style="fill-rule:evenodd;clip-rule:evenodd;stroke-linejoin:round;stroke-miterlimit:2;">
    <g transform="matrix(1,0,0,1,3.0901,1.77636e-14)">
        <g transform="matrix(1.8149,0,0,1.8149,2.22114,2.22126)">
            <path d="M10.5,9.513L10.5,2.75C10.5,2.339 10.839,2 11.25,2C11.34,2 11.429,2.017 11.513,2.048L16.206,3.807L15.04,4.972L12,3.832L12,7.23L12.569,7.444L10.5,9.513ZM19.215,5.366C19.71,5.944 20,6.69 20,7.483L20,10.75C20,11.161 19.661,11.5 19.25,11.5C19.16,11.5 19.071,11.483 18.987,11.452L14.727,9.855L15.892,8.69L18.5,9.668L18.5,7.483C18.5,7.096 18.372,6.73 18.149,6.433L19.215,5.366ZM12,12.582L12,18.25C12,18.313 11.992,18.376 11.976,18.437C11.754,20.455 10.03,21.999 8,21.999C6.542,21.999 5.256,21.203 4.557,20.025L5.673,18.909C6.04,19.837 6.948,20.5 8,20.5C9.371,20.5 10.5,19.371 10.5,18C10.5,16.948 9.837,16.04 8.909,15.673L10.029,14.552C10.193,14.649 10.35,14.757 10.5,14.877L10.5,14.082L12,12.582Z" style="fill:rgb(88,133,167);fill-opacity:0.41;"/>
        </g>
        <g transform="matrix(0.824166,-0.824166,0.560505,0.560505,-8.94259,35.3558)">
            <rect x="4" y="15" width="42" height="3" style="fill:rgb(88,133,167);fill-opacity:0.41;"/>
        </g>
    </g>
</svg>
