<?xml version="1.0" encoding="UTF-8" standalone="no"?>
<!DOCTYPE svg PUBLIC "-//W3C//DTD SVG 1.1//EN" "http://www.w3.org/Graphics/SVG/1.1/DTD/svg11.dtd">
<svg width="100%" height="100%" viewBox="0 0 40 40" version="1.1" xmlns="http://www.w3.org/2000/svg" xmlns:xlink="http://www.w3.org/1999/xlink" xml:space="preserve" xmlns:serif="http://www.serif.com/" style="fill-rule:evenodd;clip-rule:evenodd;stroke-linejoin:round;stroke-miterlimit:2;">
    <g transform="matrix(1.4222,0,0,1.4222,-377.011,-915.262)">
        <path d="M271.272,663.24L267.903,663.24C267.522,663.24 267.161,663.167 266.819,663.021C266.477,662.874 266.177,662.672 265.918,662.413C265.659,662.154 265.457,661.854 265.31,661.512C265.164,661.17 265.09,660.809 265.09,660.428L265.09,654.803C265.09,654.422 265.164,654.061 265.31,653.719C265.457,653.377 265.659,653.077 265.918,652.818C266.177,652.559 266.477,652.357 266.819,652.21C267.161,652.064 267.522,651.99 267.903,651.99L271.272,651.99L275.813,647.435C275.95,647.298 276.104,647.198 276.274,647.135C276.445,647.071 276.624,647.039 276.809,647.039C277.21,647.039 277.544,647.171 277.813,647.435C278.081,647.699 278.215,648.031 278.215,648.431L278.215,666.8C278.215,666.995 278.179,667.176 278.106,667.342C278.032,667.508 277.93,667.657 277.798,667.789C277.666,667.921 277.515,668.023 277.344,668.096C277.173,668.17 276.995,668.206 276.809,668.206C276.419,668.206 276.086,668.07 275.813,667.796L271.272,663.24Z" style="fill:url(#_Linear1);"/>
    </g>
    <g transform="matrix(1.4222,0,0,1.4222,-377.012,-915.261)">
        <path d="M271.272,663.24L267.903,663.24C267.522,663.24 267.161,663.167 266.819,663.021C266.477,662.874 266.177,662.672 265.918,662.413C265.659,662.154 265.457,661.854 265.31,661.512C265.164,661.17 265.09,660.809 265.09,660.428L265.09,654.803C265.09,654.422 265.164,654.061 265.31,653.719C265.457,653.377 265.659,653.077 265.918,652.818C266.177,652.559 266.477,652.357 266.819,652.21C267.161,652.064 267.522,651.99 267.903,651.99L271.272,651.99L271.272,663.24Z" style="fill:url(#_Linear2);"/>
    </g>
    <g transform="matrix(1.4222,0,0,1.4222,-377.011,-915.262)">
        <path d="M287.59,658.934L283.562,662.962C283.377,663.148 283.157,663.24 282.903,663.24C282.649,663.24 282.429,663.148 282.244,662.962C282.058,662.777 281.965,662.557 281.965,662.303C281.965,662.049 282.058,661.829 282.244,661.644L286.272,657.615L282.244,653.587C282.058,653.402 281.965,653.182 281.965,652.928C281.965,652.674 282.058,652.454 282.244,652.269C282.429,652.083 282.649,651.99 282.903,651.99C283.157,651.99 283.377,652.083 283.562,652.269L287.59,656.282L291.619,652.269C291.804,652.083 292.024,651.99 292.278,651.99C292.532,651.99 292.752,652.083 292.937,652.269C293.123,652.454 293.215,652.674 293.215,652.928C293.215,653.182 293.123,653.402 292.937,653.587L288.923,657.615L292.937,661.644C293.123,661.829 293.215,662.049 293.215,662.303C293.215,662.557 293.123,662.777 292.937,662.962C292.752,663.148 292.532,663.24 292.278,663.24C292.024,663.24 291.804,663.148 291.619,662.962L287.59,658.934Z" style="fill:rgb(196,0,0);"/>
    </g>
    <defs>
        <linearGradient id="_Linear1" x1="0" y1="0" x2="1" y2="0" gradientUnits="userSpaceOnUse" gradientTransform="matrix(6.61425,22.8492,-22.8492,6.61425,273.822,649.122)"><stop offset="0" style="stop-color:rgb(166,166,166);stop-opacity:1"/><stop offset="1" style="stop-color:rgb(77,77,77);stop-opacity:1"/></linearGradient>
        <linearGradient id="_Linear2" x1="0" y1="0" x2="1" y2="0" gradientUnits="userSpaceOnUse" gradientTransform="matrix(2.31928,11.7682,-11.7682,2.31928,266.349,649.036)"><stop offset="0" style="stop-color:rgb(166,166,166);stop-opacity:1"/><stop offset="1" style="stop-color:rgb(77,77,77);stop-opacity:1"/></linearGradient>
    </defs>
</svg>
