<?xml version="1.0" encoding="UTF-8" standalone="no"?>
<!DOCTYPE svg PUBLIC "-//W3C//DTD SVG 1.1//EN" "http://www.w3.org/Graphics/SVG/1.1/DTD/svg11.dtd">
<svg width="100%" height="100%" viewBox="0 0 40 40" version="1.1" xmlns="http://www.w3.org/2000/svg" xmlns:xlink="http://www.w3.org/1999/xlink" xml:space="preserve" xmlns:serif="http://www.serif.com/" style="fill-rule:evenodd;clip-rule:evenodd;stroke-linejoin:round;stroke-miterlimit:2;">
    <g transform="matrix(1.4222,0,0,1.4222,-377.011,-915.262)">
        <path d="M271.272,663.24L267.903,663.24C267.522,663.24 267.161,663.167 266.819,663.021C266.477,662.874 266.177,662.672 265.918,662.413C265.659,662.154 265.457,661.854 265.31,661.512C265.164,661.17 265.09,660.809 265.09,660.428L265.09,654.803C265.09,654.422 265.164,654.061 265.31,653.719C265.457,653.377 265.659,653.077 265.918,652.818C266.177,652.559 266.477,652.357 266.819,652.21C267.161,652.064 267.522,651.99 267.903,651.99L271.272,651.99L275.813,647.435C275.95,647.298 276.104,647.198 276.274,647.135C276.445,647.071 276.624,647.039 276.809,647.039C277.21,647.039 277.544,647.171 277.813,647.435C278.081,647.699 278.215,648.031 278.215,648.431L278.215,666.8C278.215,666.995 278.179,667.176 278.106,667.342C278.032,667.508 277.93,667.657 277.798,667.789C277.666,667.921 277.515,668.023 277.344,668.096C277.173,668.17 276.995,668.206 276.809,668.206C276.419,668.206 276.086,668.07 275.813,667.796L271.272,663.24Z" style="fill:url(#_Linear1);"/>
    </g>
    <g transform="matrix(1.4222,0,0,1.4222,-377.012,-915.261)">
        <path d="M271.272,663.24L267.903,663.24C267.522,663.24 267.161,663.167 266.819,663.021C266.477,662.874 266.177,662.672 265.918,662.413C265.659,662.154 265.457,661.854 265.31,661.512C265.164,661.17 265.09,660.809 265.09,660.428L265.09,654.803C265.09,654.422 265.164,654.061 265.31,653.719C265.457,653.377 265.659,653.077 265.918,652.818C266.177,652.559 266.477,652.357 266.819,652.21C267.161,652.064 267.522,651.99 267.903,651.99L271.272,651.99L271.272,663.24Z" style="fill:url(#_Linear2);"/>
    </g>
    <g transform="matrix(1,0,0,1,-450.231,-637.605)">
        <path d="M477.844,665.95C477.844,665.784 477.871,665.657 477.925,665.57C477.979,665.482 478.059,665.374 478.167,665.247C478.704,664.642 479.182,664.061 479.602,663.504C480.022,662.948 480.374,662.374 480.657,661.783C480.94,661.192 481.157,660.56 481.309,659.886C481.46,659.212 481.536,658.455 481.536,657.615C481.536,656.776 481.46,656.019 481.309,655.345C481.157,654.671 480.94,654.039 480.657,653.448C480.374,652.857 480.022,652.283 479.602,651.727C479.182,651.17 478.704,650.589 478.167,649.984C478.059,649.857 477.979,649.749 477.925,649.661C477.871,649.574 477.844,649.447 477.844,649.281C477.844,649.027 477.94,648.809 478.13,648.629C478.32,648.448 478.543,648.358 478.796,648.358C478.943,648.358 479.055,648.375 479.133,648.409C479.211,648.443 479.309,648.504 479.426,648.592C479.719,648.817 480.01,649.093 480.298,649.42C480.586,649.747 480.859,650.096 481.118,650.467C481.377,650.838 481.614,651.217 481.829,651.602C482.044,651.988 482.224,652.352 482.371,652.694C483.064,654.256 483.411,655.897 483.411,657.615C483.411,659.334 483.064,660.975 482.371,662.537C482.234,662.85 482.056,663.204 481.836,663.599C481.616,663.995 481.375,664.386 481.111,664.771C480.847,665.157 480.571,665.516 480.283,665.848C479.995,666.18 479.71,666.444 479.426,666.639C479.319,666.707 479.219,666.763 479.126,666.807C479.033,666.851 478.923,666.873 478.796,666.873C478.543,666.873 478.32,666.783 478.13,666.602C477.94,666.422 477.844,666.204 477.844,665.95Z" style="fill:url(#_Linear3);"/>
    </g>
    <g transform="matrix(1,0,0,1,-450.231,-637.605)">
        <path d="M474.211,662.376C474.211,662.24 474.229,662.132 474.263,662.054C474.297,661.976 474.353,661.883 474.431,661.776C474.656,661.434 474.861,661.104 475.046,660.787C475.232,660.47 475.388,660.147 475.515,659.82C475.642,659.493 475.74,659.151 475.808,658.795C475.877,658.438 475.911,658.045 475.911,657.615C475.911,657.196 475.877,656.805 475.808,656.444C475.74,656.082 475.642,655.738 475.515,655.411C475.388,655.084 475.232,654.761 475.046,654.444C474.861,654.127 474.656,653.797 474.431,653.455C474.353,653.348 474.297,653.255 474.263,653.177C474.229,653.099 474.211,652.991 474.211,652.855C474.211,652.601 474.304,652.381 474.49,652.196C474.675,652.01 474.895,651.917 475.149,651.917C475.315,651.917 475.452,651.947 475.559,652.005C475.667,652.064 475.774,652.152 475.881,652.269C476.194,652.611 476.467,652.994 476.702,653.419C476.936,653.844 477.134,654.293 477.295,654.766C477.456,655.24 477.578,655.721 477.661,656.209C477.744,656.698 477.786,657.166 477.786,657.615C477.786,658.045 477.744,658.507 477.661,659C477.578,659.493 477.456,659.981 477.295,660.465C477.134,660.948 476.934,661.407 476.694,661.842C476.455,662.276 476.184,662.65 475.881,662.962C475.676,663.187 475.432,663.299 475.149,663.299C474.895,663.299 474.675,663.209 474.49,663.028C474.304,662.847 474.211,662.63 474.211,662.376Z" style="fill:url(#_Linear4);"/>
    </g>
    <defs>
        <linearGradient id="_Linear1" x1="0" y1="0" x2="1" y2="0" gradientUnits="userSpaceOnUse" gradientTransform="matrix(6.61425,22.8492,-22.8492,6.61425,273.822,649.122)"><stop offset="0" style="stop-color:rgb(166,166,166);stop-opacity:1"/><stop offset="1" style="stop-color:rgb(77,77,77);stop-opacity:1"/></linearGradient>
        <linearGradient id="_Linear2" x1="0" y1="0" x2="1" y2="0" gradientUnits="userSpaceOnUse" gradientTransform="matrix(2.31928,11.7682,-11.7682,2.31928,266.349,649.036)"><stop offset="0" style="stop-color:rgb(166,166,166);stop-opacity:1"/><stop offset="1" style="stop-color:rgb(77,77,77);stop-opacity:1"/></linearGradient>
        <linearGradient id="_Linear3" x1="0" y1="0" x2="1" y2="-0.846658" gradientUnits="userSpaceOnUse" gradientTransform="matrix(5.39977,17.7076,-5.66975,16.8644,475.684,645.828)"><stop offset="0" style="stop-color:rgb(30,197,0);stop-opacity:1"/><stop offset="1" style="stop-color:rgb(62,156,0);stop-opacity:1"/></linearGradient>
        <linearGradient id="_Linear4" x1="0" y1="0" x2="1" y2="-0.830167" gradientUnits="userSpaceOnUse" gradientTransform="matrix(3.46722,10.8851,-3.64058,10.3668,472.825,650.362)"><stop offset="0" style="stop-color:rgb(30,197,0);stop-opacity:1"/><stop offset="1" style="stop-color:rgb(62,156,0);stop-opacity:1"/></linearGradient>
    </defs>
</svg>
