<svg xmlns="http://www.w3.org/2000/svg" width="100%" height="100%" viewBox="0 0 48 48">
  <defs>
    <linearGradient id="gem" x1="10" y1="7" x2="39" y2="41" gradientUnits="userSpaceOnUse">
      <stop stop-color="#ffb4de"/><stop offset="1" stop-color="#df2b99"/>
    </linearGradient>
  </defs>
  <path fill="url(#gem)" stroke="#94185f" stroke-linejoin="round" stroke-width="1.25" d="M24 1 43.919 12.5v23L24 47 4.081 35.5v-23L24 1Z"/>
  <path fill="#fff9fd" stroke="#741044" stroke-linejoin="round" stroke-width="2" d="M34.2 11.7a2.2 2.2 0 0 1 3.4 1.8v21a2.2 2.2 0 0 1-3.4 1.8L19.7 25.8a2.2 2.2 0 0 1 0-3.6l14.5-10.5ZM16 12a2.25 2.25 0 0 0-4.5 0v24a2.25 2.25 0 0 0 4.5 0V12Z"/>
  <path fill="#fff9fd" stroke="#741044" stroke-linejoin="round" stroke-width="1" d="m10 8 1.1 2.8 2.8 1.1-2.8 1.1-1.1 2.8L8.9 13l-2.8-1.1 2.8-1.1L10 8Z"/>
</svg>
