<svg xmlns="http://www.w3.org/2000/svg" width="100%" height="100%" viewBox="0 0 48 48">
  <defs>
    <linearGradient id="gem" x1="10" y1="7" x2="39" y2="41" gradientUnits="userSpaceOnUse">
      <stop stop-color="#ffb4de"/><stop offset="1" stop-color="#df2b99"/>
    </linearGradient>
  </defs>
  <path fill="url(#gem)" stroke="#94185f" stroke-linejoin="round" stroke-width="1.25" d="M24 1 43.919 12.5v23L24 47 4.081 35.5v-23L24 1Z"/>
  <path fill="#fff9fd" stroke="#741044" stroke-linejoin="round" stroke-width="2" d="M9.5 18.5h7l9-7.5a1.6 1.6 0 0 1 2.6 1.2v23.6a1.6 1.6 0 0 1-2.6 1.2l-9-7.5h-7A2.5 2.5 0 0 1 7 27v-6a2.5 2.5 0 0 1 2.5-2.5Z"/>
  <path fill="#fff9fd" stroke="#741044" stroke-linejoin="round" stroke-width="1" d="m37 15 1.55 3.45L42 20l-3.45 1.55L37 25l-1.55-3.45L32 20l3.45-1.55L37 15Z"/>
</svg>
