<svg xmlns="http://www.w3.org/2000/svg" width="100%" height="100%" viewBox="0 0 48 48">
  <defs>
    <linearGradient id="gem" x1="10" y1="7" x2="39" y2="41" gradientUnits="userSpaceOnUse">
      <stop stop-color="#ffb4de"/><stop offset="1" stop-color="#df2b99"/>
    </linearGradient>
  </defs>
  <path fill="url(#gem)" stroke="#94185f" stroke-linejoin="round" stroke-width="1.25" d="M24 1 43.919 12.5v23L24 47 4.081 35.5v-23L24 1Z"/>
  <path fill="#fff9fd" stroke="#741044" stroke-linejoin="round" stroke-width="2" d="M11 18.5h7l8.5-7.1a1.55 1.55 0 0 1 2.5 1.2v22.8a1.55 1.55 0 0 1-2.5 1.2L18 29.5h-7A2.5 2.5 0 0 1 8.5 27v-6A2.5 2.5 0 0 1 11 18.5Z"/>
  <path fill="#fff9fd" stroke="#741044" stroke-linejoin="round" stroke-width="1" d="m38 18 1.2 3.1 3.1 1.2-3.1 1.2-1.2 3.1-1.2-3.1-3.1-1.2 3.1-1.2L38 18Z"/>
</svg>
