<svg xmlns="http://www.w3.org/2000/svg" width="100%" height="100%" viewBox="1 -23 22 22">
  <!-- Segoe Fluent Icons E893 (Next), sourced from the Windows 11 system font. -->
  <path fill="#737373" fill-opacity="0.52" fill-rule="evenodd" d="M21-2.25V-21.75C21-21.953 21.074-22.129 21.223-22.277C21.371-22.426 21.547-22.5 21.75-22.5C21.953-22.5 22.129-22.426 22.277-22.277C22.426-22.129 22.5-21.953 22.5-21.75V-2.25C22.5-2.047 22.426-1.871 22.277-1.723C22.129-1.574 21.953-1.5 21.75-1.5C21.547-1.5 21.371-1.574 21.223-1.723C21.074-1.871 21-2.047 21-2.25ZM1.5-3.586V-20.414C1.5-20.672 1.551-20.916 1.652-21.146C1.754-21.377 1.889-21.576 2.057-21.744C2.225-21.912 2.424-22.045 2.654-22.143C2.885-22.24 3.129-22.289 3.387-22.289C3.746-22.289 4.086-22.184 4.406-21.973L17.168-13.57C17.434-13.398 17.641-13.174 17.789-12.896C17.938-12.619 18.012-12.32 18.012-12C18.012-11.68 17.938-11.381 17.789-11.104C17.641-10.826 17.434-10.602 17.168-10.43L4.406-2.027C4.25-1.926 4.084-1.848 3.908-1.793C3.732-1.738 3.551-1.711 3.363-1.711C3.105-1.711 2.865-1.762 2.643-1.863C2.42-1.965 2.223-2.1 2.051-2.268C1.879-2.436 1.744-2.633 1.646-2.859C1.549-3.086 1.5-3.328 1.5-3.586ZM16.512-12C16.512-12.062 16.498-12.121 16.471-12.176C16.443-12.23 16.402-12.277 16.348-12.316L3.586-20.73C3.562-20.746 3.529-20.76 3.486-20.771C3.443-20.783 3.406-20.789 3.375-20.789C3.273-20.789 3.186-20.752 3.111-20.678C3.037-20.604 3-20.516 3-20.414V-3.586C3-3.477 3.037-3.387 3.111-3.316C3.186-3.246 3.277-3.211 3.387-3.211C3.449-3.211 3.512-3.23 3.574-3.27L16.348-11.684C16.402-11.723 16.443-11.77 16.471-11.824C16.498-11.879 16.512-11.938 16.512-12Z"/>
</svg>
